<?xml version="1.0" encoding="iso-8859-1"?>
<!-- Generator: Adobe Illustrator 19.0.0, SVG Export Plug-In . SVG Version: 6.00 Build 0)  -->
<svg version="1.1" id="Capa_1" xmlns="http://www.w3.org/2000/svg" xmlns:xlink="http://www.w3.org/1999/xlink" x="0px" y="0px"
	 viewBox="0 0 512 512" style="enable-background:new 0 0 512 512;" xml:space="preserve">
<g>
	<rect x="56" y="10" style="fill:#EE3C32;" width="400" height="40"/>
	<rect x="56" y="462" style="fill:#EE3C32;" width="400" height="40"/>
</g>
<g>
	<rect x="106" y="422" style="fill:#E48A80;" width="300" height="40"/>
	<rect x="106" y="50" style="fill:#E48A80;" width="300" height="40"/>
</g>
<path style="fill:#ECECEC;" d="M286,256c0-36,120-42,120-166H106c0,124,120,130,120,166s-120,36-120,166h300
	C406,292,286,292,286,256z"/>
<path style="fill:#FAC800;" d="M256,208c0,0,110-57.561,110-118H146C146,150.439,256,208,256,208z"/>
<g>
	<path style="fill:#231F20;" d="M325.022,231.414C361.251,209.431,416,176.21,416,90V60h40c5.522,0,10-4.477,10-10V10
		c0-5.523-4.478-10-10-10H56c-5.522,0-10,4.477-10,10v40c0,5.523,4.478,10,10,10h40v30c0,86.21,54.749,119.431,90.978,141.414
		C201.903,240.47,216,249.024,216,256c0,6.603-13.559,14.332-27.913,22.515c-18.295,10.43-41.065,23.411-59.53,45.29
		C106.649,349.761,96,381.881,96,422v30H56c-5.522,0-10,4.477-10,10v40c0,5.523,4.478,10,10,10h400c5.522,0,10-4.477,10-10v-40
		c0-5.523-4.478-10-10-10h-40v-30c0-40.119-10.649-72.239-32.557-98.195c-18.465-21.878-41.235-34.859-59.53-45.29
		C309.559,270.332,296,262.603,296,256C296,249.024,310.097,240.47,325.022,231.414z M66,40V20h380v20H66z M116,60h280v20H116V60z
		 M354.797,100c-9.25,39.471-69.541,80.405-98.8,96.637c-29.265-16.214-89.555-57.12-98.798-96.637
		C157.199,100,354.797,100,354.797,100z M446,472v20H66v-20H446z M396,452H116v-20h280V452z M314.008,295.89
		c33.107,18.874,77.92,44.421,81.731,116.11h-234.47c0.393-3.122,0.994-6.853,1.921-10.98c2.301-10.33,7.21-25.38,17.48-38.429
		c3.329-4.229,2.529-10.733-1.678-14.04c-4.25-3.34-10.72-2.547-14.041,1.68c-10.08,12.86-17.24,28.47-21.28,46.42
		c-1.327,5.936-2.091,11.187-2.532,15.35h-24.877c3.812-71.689,48.624-97.236,81.731-116.11C218.387,284.264,236,274.223,236,256
		c0-18.234-17.909-29.102-38.647-41.685C164.592,194.437,120.278,167.543,116.29,100h20.533c4.08,25.323,23.512,52.007,57.94,79.48
		c27.927,22.287,55.44,36.772,56.6,37.38c2.77,1.45,6.372,1.518,9.274,0c1.157-0.606,28.672-15.092,56.601-37.38
		c34.428-27.473,53.859-54.158,57.94-79.48h20.533c-3.988,67.543-48.302,94.437-81.063,114.315C293.909,226.898,276,237.766,276,256
		C276,274.223,293.613,284.264,314.008,295.89z"/>
	<circle style="fill:#231F20;" cx="204" cy="332" r="10"/>
</g>
</svg>
